<mxfile host="65bd71144e">
    <diagram id="JEsTlUpDhYdb9cbmNnKn" name="Page-1">
        <mxGraphModel dx="745" dy="364" grid="1" gridSize="10" guides="1" tooltips="1" connect="1" arrows="1" fold="1" page="1" pageScale="1" pageWidth="850" pageHeight="1100" math="0" shadow="0">
            <root>
                <mxCell id="0"/>
                <mxCell id="1" parent="0"/>
                <mxCell id="2" value="" style="rounded=0;whiteSpace=wrap;html=1;" vertex="1" parent="1">
                    <mxGeometry x="10" y="10" width="720" height="330" as="geometry"/>
                </mxCell>
                <mxCell id="3" value="weather app" style="rounded=0;whiteSpace=wrap;html=1;" vertex="1" parent="1">
                    <mxGeometry x="20" y="20" width="700" height="60" as="geometry"/>
                </mxCell>
                <mxCell id="4" value="" style="rounded=0;whiteSpace=wrap;html=1;" vertex="1" parent="1">
                    <mxGeometry x="20" y="90" width="140" height="230" as="geometry"/>
                </mxCell>
                <mxCell id="5" value="input search" style="rounded=0;whiteSpace=wrap;html=1;" vertex="1" parent="1">
                    <mxGeometry x="30" y="100" width="120" height="30" as="geometry"/>
                </mxCell>
                <mxCell id="6" value="submit search" style="rounded=0;whiteSpace=wrap;html=1;" vertex="1" parent="1">
                    <mxGeometry x="30" y="130" width="120" height="20" as="geometry"/>
                </mxCell>
                <mxCell id="7" value="saved past searchs" style="rounded=0;whiteSpace=wrap;html=1;" vertex="1" parent="1">
                    <mxGeometry x="30" y="160" width="120" height="150" as="geometry"/>
                </mxCell>
                <mxCell id="8" value="city&lt;br&gt;current date&lt;br&gt;temp&lt;br&gt;wind&lt;br&gt;humiodity&lt;br&gt;uv index" style="rounded=0;whiteSpace=wrap;html=1;" vertex="1" parent="1">
                    <mxGeometry x="170" y="90" width="550" height="100" as="geometry"/>
                </mxCell>
                <mxCell id="9" value="" style="rounded=0;whiteSpace=wrap;html=1;" vertex="1" parent="1">
                    <mxGeometry x="170" y="200" width="550" height="120" as="geometry"/>
                </mxCell>
            </root>
        </mxGraphModel>
    </diagram>
</mxfile>